<svg width="166" height="11" viewBox="0 0 166 11" fill="none" xmlns="http://www.w3.org/2000/svg">
<g clip-path="url(#clip0_321_248)">
<path d="M48.7054 0.0131836H50.9232V7.5357C50.9232 7.5357 50.8381 8.40835 51.5119 8.54942H65.9763C65.9763 8.54942 66.5487 8.40835 66.5389 7.81784L66.5487 0.0131836H68.9398V8.66096C68.9398 8.66096 68.8973 10.38 67.3665 10.731H50.3998C50.3998 10.731 48.954 10.7179 48.7021 8.88733V0.0131836H48.7054Z" fill="white"></path>
<path d="M93.2103 0.0131836H72.8188V2.37853H93.2103V0.0131836Z" fill="white"></path>
<path d="M93.2103 4.31079H72.8188V6.67614H93.2103V4.31079Z" fill="white"></path>
<path d="M93.2103 8.60522H72.8188V10.9706H93.2103V8.60522Z" fill="white"></path>
<path d="M97.2764 10.9737V1.66324C97.2764 1.66324 97.4039 0.0163574 99.131 0.0163574H115.646C115.646 0.0163574 117.288 0.144302 117.543 2.12909V10.9737H115.185L115.143 7.24034H99.7002L99.6805 10.9737H97.2796H97.2764ZM115.224 4.31072L115.215 3.20514C115.205 2.33905 114.433 2.25376 114.433 2.25376H100.564C99.4254 2.29641 99.5955 3.24779 99.5955 3.24779V4.31072H115.228H115.224Z" fill="white"></path>
<path d="M145.749 0H166V2.29645H157.096L157.07 10.9869H154.793L154.712 2.26693L145.749 2.29645V0Z" fill="white"></path>
<path d="M2.75429 4.29771H17.8925C20.1527 4.25178 20.3065 5.96099 20.3065 5.96099V9.22851C20.0808 10.777 18.7626 11.0033 18.7626 11.0033H0.000111897V8.65112L17.5 8.638C17.9219 8.74954 18.0887 8.10325 18.0887 8.10325L18.1182 7.45696C18.0887 6.8238 17.4705 6.75163 17.4705 6.75163H1.76972C-0.0849342 6.54823 0.000111897 4.83245 0.000111897 4.83245V1.76177C0.363193 0.0131836 2.08047 0.0131836 2.08047 0.0131836H20.3098V2.40805L2.90149 2.49663C2.90149 2.49663 2.32252 2.38181 2.27673 2.93952L2.29308 3.80561C2.29308 3.80561 2.33234 4.29442 2.75429 4.29442V4.29771Z" fill="white"></path>
<path d="M124.262 4.28124H139.4C141.661 4.23531 141.818 5.94453 141.818 5.94453V9.21205C141.592 10.7605 140.274 10.9869 140.274 10.9869H121.511V8.63466L139.011 8.62153C139.433 8.73308 139.6 8.08679 139.6 8.08679L139.629 7.4405C139.6 6.80734 138.982 6.73516 138.982 6.73516H123.281C121.426 6.53832 121.511 4.81927 121.511 4.81927V1.7453C121.871 0 123.588 0 123.588 0H141.818V2.39487L124.409 2.48345C124.409 2.48345 123.83 2.36863 123.785 2.92633L123.801 3.79243C123.801 3.79243 123.84 4.28124 124.262 4.28124Z" fill="white"></path>
<path d="M26.0795 0.0131836H42.8205C42.8205 0.0131836 44.1976 0.167374 44.5607 1.71912L44.6163 9.24164C44.6163 9.24164 44.42 10.7475 42.9023 10.9738H25.9781C25.9781 10.9738 24.2379 10.7606 24.2085 8.84796V1.76177C24.2085 1.76177 24.3786 0.226425 26.0762 0.0164642L26.0795 0.0131836ZM26.5702 2.86078V7.93266C26.5702 7.93266 26.822 8.57895 27.3552 8.57895H41.7378C41.7378 8.57895 42.3266 8.54942 42.3822 7.87361V2.86078C42.3822 2.86078 42.3822 2.27027 41.6527 2.27027H27.1884C27.1884 2.27027 26.6323 2.27027 26.5702 2.86078Z" fill="white"></path>
</g>
<defs>
<clipPath id="clip0_321_248">
<rect width="166" height="11" fill="white"></rect>
</clipPath>
</defs>
</svg>