<?xml version="1.0" encoding="UTF-8"?>
<svg id="Capa_2" data-name="Capa 2" xmlns="http://www.w3.org/2000/svg" viewBox="0 0 19.3 7.92">
  <defs>
    
  </defs>
  <g id="Capa_1-2" data-name="Capa 1">
    <g>
      <path class="cls-1" d="M17.9,4.67h-1.89c-.24,0-.46.06-.66.15v-.35c0-.5.23-.82.76-1.05.08-.03.37-.09.98-.09,0,0,.02,0,.03,0,.45,0,.86.03,1.01.06.21.04.38.11.76.26l.32-.59c-.36-.15-.6-.24-.91-.3-.38-.08-1.98-.16-2.52.08-.78.34-1.18.89-1.18,1.64v2.22c0,.68.63,1.23,1.41,1.23h1.89c.78,0,1.41-.55,1.41-1.23v-.79c0-.68-.63-1.23-1.41-1.23ZM18.55,6.69c0,.32-.29.57-.66.57h-1.89c-.36,0-.66-.26-.66-.57v-.79c0-.32.29-.57.66-.57h1.89c.36,0,.66.26.66.57v.79Z"></path>
      <path class="cls-1" d="M11.95,2.68h-1.29c-.94,0-1.71.68-1.71,1.51v2.23c0,.83.77,1.51,1.71,1.51h1.29c.94,0,1.71-.68,1.71-1.51v-2.23c0-.83-.77-1.51-1.71-1.51ZM12.91,6.41c0,.47-.43.85-.96.85h-1.29c-.53,0-.96-.38-.96-.85v-2.23c0-.47.43-.85.96-.85h1.29c.53,0,.96.38.96.85v2.23Z"></path>
      <path class="cls-1" d="M6.06,3.8c-.96-.26-1.32-.32-2.28-.48l-.25-.04c-1.01-.17-2.07-.48-2.42-.67,0-.16,0-.29,0-.42,0-.17,0-.33,0-.55.13-.19,1.07-.52,2.84-.52,1.15,0,2.81.32,3.21.4.03,0,.06-.02.06-.05V.43s-.02-.04-.04-.05c-.63-.12-2.11-.38-3.23-.38-.52,0-1.52.03-2.37.24C.53.49,0,.95,0,1.61c0,.23,0,.4,0,.58,0,.18,0,.36,0,.61C0,3.38.63,3.67,1.63,3.97c.65.19,1.38.34,1.72.4l.25.04c.95.16,1.27.21,2.17.46.39.11.41.31.41.61v.83c0,.09,0,.31-.73.41-.79.11-3.57.21-5.26-.22-.03,0-.06.02-.06.05v1.04s.02.04.04.05c1.02.22,2.24.29,3.28.29,1,0,1.83-.06,2.15-.11,1.39-.2,1.69-.93,1.69-1.51v-.82c0-1.11-.66-1.53-1.23-1.69Z"></path>
    </g>
  </g>
</svg>