<?xml version="1.0" encoding="UTF-8"?>
<svg id="Capa_2" data-name="Capa 2" xmlns="http://www.w3.org/2000/svg" viewBox="0 0 19.6 14.08">
  <defs>
    
  </defs>
  <g id="Capa_1-2" data-name="Capa 1">
    <g>
      <g>
        <path class="cls-1" d="M18.16,4.67h-1.89c-.24,0-.46.06-.66.15v-.35c0-.5.23-.82.76-1.05.08-.03.37-.09.98-.09,0,0,.02,0,.03,0,.45,0,.86.03,1.01.06.21.04.38.1.76.26l.32-.59c-.36-.15-.6-.24-.91-.3-.38-.08-1.97-.15-2.52.08-.78.34-1.18.89-1.18,1.64v2.22c0,.68.63,1.23,1.41,1.23h1.89c.78,0,1.41-.55,1.41-1.23v-.79c0-.68-.63-1.23-1.41-1.23ZM18.81,6.69c0,.31-.29.57-.66.57h-1.89c-.36,0-.66-.26-.66-.57v-.79c0-.31.29-.57.66-.57h1.89c.36,0,.66.26.66.57v.79Z"></path>
        <path class="cls-1" d="M12.22,2.67h-1.29c-.94,0-1.71.68-1.71,1.51v2.23c0,.83.77,1.51,1.71,1.51h1.29c.94,0,1.71-.68,1.71-1.51v-2.23c0-.83-.77-1.51-1.71-1.51ZM13.18,6.4c0,.47-.43.84-.96.84h-1.29c-.53,0-.96-.38-.96-.84v-2.23c0-.47.43-.84.96-.84h1.29c.53,0,.96.38.96.84v2.23Z"></path>
        <path class="cls-1" d="M6.09,3.79c-.95-.26-1.31-.32-2.28-.48l-.25-.04c-1.01-.17-2.07-.48-2.42-.67,0-.16,0-.29,0-.42,0-.17,0-.33,0-.55.13-.19,1.07-.52,2.84-.52,1.15,0,2.81.32,3.21.4.03,0,.06-.02.06-.05V.43s-.02-.04-.04-.05c-.63-.12-2.11-.38-3.23-.38-.52,0-1.52.03-2.37.24C.57.49.04.95.04,1.61c0,.23,0,.4,0,.58,0,.18,0,.35,0,.61,0,.58.62.88,1.63,1.17.65.19,1.38.34,1.72.4l.25.04c.95.16,1.27.21,2.17.46.39.11.41.31.41.61v.83c0,.09,0,.31-.73.41-.79.11-3.57.21-5.25-.22-.03,0-.06.02-.06.05v1.04s.02.04.04.05c1.02.22,2.24.29,3.28.29,1,0,1.83-.06,2.15-.11,1.39-.2,1.68-.93,1.68-1.51v-.82c0-1.11-.66-1.53-1.23-1.68Z"></path>
      </g>
      <g>
        <path class="cls-1" d="M4.59,10.29h-1.61v.67h1.61s.08-.03.08-.08v-.51s-.03-.08-.08-.08Z"></path>
        <path class="cls-1" d="M18.35,8.61H1.25c-.69,0-1.25.56-1.25,1.25v2.97c0,.69.56,1.25,1.25,1.25h17.1c.69,0,1.25-.56,1.25-1.25v-2.97c0-.69-.56-1.25-1.25-1.25ZM5.53,10.88c0,.52-.42.94-.94.94h-1.61v1.36c0,.1-.08.18-.18.18h-.51c-.1,0-.18-.08-.18-.18v-3.58c0-.1.08-.18.18-.18h2.3c.52,0,.94.42.94.94v.51ZM9.57,13.18c0,.1-.08.18-.18.18h-.51c-.1,0-.18-.08-.18-.18v-1.36h-1.69v1.36c0,.1-.08.18-.18.18h-.51c-.1,0-.18-.08-.18-.18v-3.58c0-.1.08-.18.18-.18h.51c.1,0,.18.08.18.18v1.36h1.69v-1.36c0-.1.08-.18.18-.18h.51c.1,0,.18.08.18.18v3.58ZM13.56,10.11c0,.1-.08.18-.18.18h-2.28v.67h2.28c.06,0,.11.03.14.07.03.04.04.1.03.16l-.15.51c-.02.07-.09.13-.17.13h-2.12v.67h2.28c.1,0,.18.08.18.18v.51c0,.1-.08.18-.18.18h-2.96c-.1,0-.18-.08-.18-.18v-3.58c0-.1.08-.18.18-.18h2.96c.1,0,.18.08.18.18v.51ZM17.49,10.72c0,.8-1.18,2.38-1.31,2.56-.03.04-.09.07-.14.07h-.51c-.06,0-.11-.03-.14-.07-.13-.18-1.32-1.76-1.32-2.56v-1.12c0-.1.08-.18.18-.18h.51c.1,0,.18.08.18.18v1.12c0,.29.47,1.08.84,1.63.37-.55.85-1.34.85-1.63v-1.12c0-.1.08-.18.18-.18h.51c.1,0,.18.08.18.18v1.12Z"></path>
      </g>
    </g>
  </g>
</svg>