<?xml version="1.0" encoding="UTF-8"?>
<svg id="Capa_2" data-name="Capa 2" xmlns="http://www.w3.org/2000/svg" viewBox="0 0 19.3 7.86">
  <defs>
    
  </defs>
  <g id="Capa_2-2" data-name="Capa 2">
    <g>
      <path class="cls-1" d="M11.95,2.66h-1.28c-.93,0-1.69.67-1.69,1.5v2.21c0,.82.76,1.5,1.69,1.5h1.28c.93,0,1.69-.67,1.69-1.5v-2.21c0-.82-.76-1.5-1.69-1.5ZM12.9,6.37c0,.46-.43.84-.95.84h-1.28c-.52,0-.95-.38-.95-.84v-2.21c0-.46.43-.84.95-.84h1.28c.52,0,.95.38.95.84v2.21Z"></path>
      <path class="cls-1" d="M6.01,3.77c-.95-.26-1.31-.32-2.26-.48l-.24-.04c-1-.17-2.06-.48-2.41-.67,0-.16,0-.29,0-.42,0-.17,0-.33,0-.55.13-.18,1.06-.52,2.82-.52,1.14,0,2.79.32,3.19.4.03,0,.06-.02.06-.05V.43s-.02-.04-.04-.05c-.63-.12-2.1-.38-3.21-.38-.52,0-1.51.03-2.35.24C.53.49,0,.95,0,1.6c0,.23,0,.4,0,.57,0,.17,0,.35,0,.6C0,3.35.62,3.65,1.62,3.94c.64.19,1.37.34,1.7.39l.25.04c.94.16,1.26.21,2.15.46.38.11.41.31.41.61v.82c0,.09,0,.31-.73.41-.79.11-3.55.21-5.22-.22-.03,0-.06.02-.06.05v1.03s.02.04.04.05c1.01.22,2.23.29,3.26.29s1.81-.06,2.13-.11c1.38-.2,1.67-.92,1.67-1.5v-.82c0-1.1-.66-1.52-1.22-1.67Z"></path>
      <path class="cls-1" d="M17.9,2.65h-1.87c-.77,0-1.4.55-1.4,1.22v.79c0,.67.63,1.22,1.4,1.22h1.87c.24,0,.46-.06.65-.15v.35c0,.5-.23.82-.75,1.04-.08.03-.36.09-.97.09-.45,0-.88-.03-1.03-.06-.21-.04-.38-.1-.76-.26l-.31.59c.36.14.6.24.9.3.19.04.67.08,1.18.08s1.05-.04,1.33-.16c.77-.34,1.17-.88,1.17-1.63v-2.21c0-.67-.63-1.22-1.4-1.22ZM18.55,4.65c0,.31-.29.57-.65.57h-1.87c-.36,0-.65-.25-.65-.57v-.79c0-.31.29-.57.65-.57h1.87c.36,0,.65.25.65.57v.79Z"></path>
    </g>
  </g>
</svg>