<?xml version="1.0" encoding="UTF-8"?>
<svg id="Capa_2" data-name="Capa 2" xmlns="http://www.w3.org/2000/svg" viewBox="0 0 500 19.09">
  <defs>
    
  </defs>
  <g id="Capa_1-2" data-name="Capa 1">
    <g>
      <rect class="cls-1" x="291.26" y=".2" width="1" height="18.8"></rect>
      <path class="cls-1" d="M79.96.62h3.64v12.7s-.14,1.43.97,1.66h23.75s.94-.23.92-1.2l.02-13.17h3.93v14.55s-.07,2.81-2.58,3.39h-27.85s-2.37-.02-2.79-3.02V.62Z"></path>
      <rect class="cls-1" x="119.55" y=".62" width="33.48" height="3.87"></rect>
      <rect class="cls-1" x="119.55" y="7.66" width="33.48" height="3.87"></rect>
      <rect class="cls-1" x="119.55" y="14.69" width="33.48" height="3.87"></rect>
      <path class="cls-1" d="M159.71,18.56V3.32s.21-2.7,3.04-2.7h27.12s2.7.21,3.11,3.46v14.48h-3.87l-.07-6.11h-25.35l-.03,6.11h-3.94ZM189.17,7.66l-.02-1.81c-.02-1.42-1.29-1.56-1.29-1.56h-22.77c-1.87.07-1.59,1.63-1.59,1.63v1.74h25.66Z"></path>
      <polygon class="cls-1" points="239.29 .6 272.54 .6 272.54 4.36 257.92 4.36 257.87 18.58 254.14 18.58 254 4.31 239.29 4.36 239.29 .6"></polygon>
      <path class="cls-1" d="M4.52,7.63h24.86c3.71-.08,3.97,2.72,3.97,2.72v5.35c-.37,2.54-2.54,2.91-2.54,2.91H0v-3.85l28.73-.02c.69.18.97-.88.97-.88l.05-1.06c-.05-1.04-1.06-1.15-1.06-1.15H2.91C-.14,11.32,0,8.51,0,8.51V3.48C.59.62,3.41.62,3.41.62h29.93v3.92l-28.58.14s-1.02-.2-1.02.73l.02,1.42s.07.8.76.8Z"></path>
      <path class="cls-1" d="M204.01,7.61h24.86c3.71-.07,3.97,2.72,3.97,2.72v5.35c-.37,2.54-2.54,2.91-2.54,2.91h-30.81v-3.85l28.73-.02c.69.18.97-.88.97-.88l.05-1.06c-.05-1.04-1.06-1.15-1.06-1.15h-25.78c-3.04-.32-2.91-3.14-2.91-3.14V3.46c.59-2.86,3.41-2.86,3.41-2.86h29.93v3.92l-28.58.14s-.95-.19-1.02.73l.02,1.42s.07.8.76.8Z"></path>
      <path class="cls-1" d="M42.82.62h27.48s2.26.25,2.86,2.79l.09,12.31s-.32,2.47-2.81,2.84h-27.78s-2.86-.35-2.91-3.48V3.48s.28-2.51,3.07-2.86ZM43.63,5.28v8.3s.42,1.06,1.29,1.06h23.61s.97-.05,1.06-1.15V5.28s0-.97-1.2-.97h-23.75s-.91,0-1.01.97Z"></path>
      <g>
        <polygon class="cls-1" points="315.27 11.08 323.84 11.08 323.84 7.75 315.27 7.75 315.27 3.75 324.98 3.75 324.98 .32 311.03 .32 311.03 18.78 325.32 18.78 325.32 15.35 315.27 15.35 315.27 11.08"></polygon>
        <path class="cls-1" d="M334.52.32l-8.23,18.46h4.38l1.65-3.96h8.56l1.64,3.96h4.48L338.74.32h-4.22ZM333.67,11.58l2.94-7.06,2.93,7.06h-5.86Z"></path>
        <path class="cls-1" d="M360.68,9.44c-.63-.39-1.33-.7-2.1-.92-.76-.23-1.53-.43-2.29-.6-.76-.18-1.46-.35-2.1-.53-.63-.18-1.14-.41-1.53-.7-.39-.29-.58-.67-.58-1.15,0-.4.11-.76.34-1.07.23-.31.61-.56,1.13-.75s1.2-.29,2.03-.29,1.67.12,2.53.36c.86.24,1.72.6,2.58,1.09l1.32-3.24c-.86-.54-1.85-.95-2.98-1.23-1.13-.27-2.27-.41-3.43-.41-1.74,0-3.19.26-4.34.78-1.15.52-2.01,1.21-2.58,2.08-.57.87-.86,1.83-.86,2.89,0,.98.2,1.79.59,2.43.4.63.91,1.14,1.54,1.53.63.39,1.33.7,2.1.95s1.53.45,2.29.62,1.46.34,2.1.53,1.14.42,1.53.71c.39.29.58.68.58,1.18,0,.39-.12.73-.37,1.03-.25.3-.63.53-1.15.7-.52.17-1.2.25-2.04.25-1.11,0-2.2-.18-3.28-.54-1.08-.36-2.02-.82-2.81-1.38l-1.45,3.22c.83.63,1.92,1.15,3.27,1.54,1.35.4,2.77.59,4.25.59,1.76,0,3.21-.26,4.36-.79,1.15-.53,2.02-1.22,2.6-2.08.58-.86.87-1.81.87-2.85,0-.97-.2-1.77-.59-2.4-.4-.63-.91-1.14-1.54-1.53Z"></path>
        <polygon class="cls-1" points="369.99 15.35 369.99 11.08 378.56 11.08 378.56 7.75 369.99 7.75 369.99 3.75 379.7 3.75 379.7 .32 365.75 .32 365.75 18.78 380.04 18.78 380.04 15.35 369.99 15.35"></polygon>
      </g>
      <g>
        <polygon class="cls-1" points="448.55 .32 444.28 .32 444.28 18.77 457.81 18.77 457.81 15.29 448.55 15.29 448.55 .32"></polygon>
        <rect class="cls-1" x="460.21" y=".32" width="4.27" height="18.46"></rect>
        <polygon class="cls-1" points="468.86 18.77 473.13 18.77 473.13 12.05 481.67 12.05 481.67 8.62 473.13 8.62 473.13 3.74 482.81 3.74 482.81 .32 468.86 .32 468.86 18.77"></polygon>
        <polygon class="cls-1" points="489.95 15.35 489.95 11.07 498.52 11.07 498.52 7.75 489.95 7.75 489.95 3.74 499.66 3.74 499.66 .32 485.71 .32 485.71 18.77 500 18.77 500 15.35 489.95 15.35"></polygon>
      </g>
      <g>
        <polygon class="cls-1" points="397.87 4.39 394.17 10.46 390.49 4.39 388.73 4.39 393.3 11.9 393.3 15.91 394.93 15.91 394.93 11.92 399.5 4.39 397.87 4.39"></polygon>
        <path class="cls-1" d="M410.24,5.93c-.55-.53-1.2-.94-1.94-1.23s-1.55-.44-2.43-.44-1.71.15-2.45.45c-.75.29-1.39.71-1.94,1.24-.55.53-.98,1.16-1.28,1.87-.31.71-.46,1.49-.46,2.34s.15,1.62.46,2.34c.31.71.73,1.33,1.28,1.87.55.53,1.2.95,1.95,1.24.75.29,1.57.44,2.44.44s1.69-.15,2.43-.44,1.39-.7,1.94-1.24c.55-.53.98-1.15,1.28-1.87.3-.71.45-1.5.45-2.35s-.15-1.64-.45-2.35c-.3-.71-.73-1.34-1.28-1.87ZM409.99,11.91c-.22.54-.54,1.01-.94,1.41-.4.4-.87.71-1.42.93-.54.22-1.13.33-1.77.33s-1.24-.11-1.79-.33c-.54-.22-1.02-.53-1.42-.93-.41-.4-.72-.87-.95-1.41-.22-.54-.34-1.12-.34-1.76s.11-1.22.34-1.76c.22-.54.54-1.01.95-1.41.41-.4.88-.71,1.42-.93.54-.22,1.14-.33,1.79-.33s1.23.11,1.77.33c.54.22,1.01.53,1.42.93.4.4.71.87.94,1.41.22.54.34,1.12.34,1.76s-.11,1.22-.34,1.76Z"></path>
        <path class="cls-1" d="M422.54,10.87c0,1.28-.28,2.22-.85,2.81-.56.59-1.37.89-2.41.89s-1.83-.29-2.39-.89c-.56-.59-.85-1.53-.85-2.81v-6.48h-1.65v6.55c0,1.67.43,2.93,1.3,3.8.87.87,2.06,1.3,3.57,1.3s2.72-.43,3.58-1.3c.86-.87,1.29-2.13,1.29-3.8v-6.55h-1.6v6.48Z"></path>
        <path class="cls-1" d="M437,15.91l-2.74-3.86c.11-.04.22-.07.32-.12.71-.32,1.26-.78,1.65-1.37.38-.6.58-1.31.58-2.15s-.19-1.55-.58-2.16c-.38-.6-.93-1.06-1.65-1.38-.71-.32-1.57-.48-2.58-.48h-4.49v11.52h1.65v-3.51h2.85c.25,0,.5-.01.73-.03l2.48,3.54h1.79ZM431.95,11h-2.8v-5.18h2.8c1.05,0,1.85.22,2.39.67.54.45.81,1.09.81,1.91s-.27,1.46-.81,1.92c-.54.45-1.34.68-2.39.68Z"></path>
      </g>
    </g>
  </g>
</svg>